<?xml version="1.0" encoding="utf-8"?>
<!-- Generator: Adobe Illustrator 18.0.0, SVG Export Plug-In . SVG Version: 6.00 Build 0)  -->
<!DOCTYPE svg PUBLIC "-//W3C//DTD SVG 1.1//EN" "http://www.w3.org/Graphics/SVG/1.1/DTD/svg11.dtd">
<svg version="1.1" id="Calque_1" xmlns="http://www.w3.org/2000/svg" xmlns:xlink="http://www.w3.org/1999/xlink" x="0px" y="0px"
	 viewBox="0 0 841.9 171.4" enable-background="new 0 0 841.9 171.4" xml:space="preserve">
<path fill="#EDEDED" d="M60.2,118.6c-4.6-2-8.2-4.8-10.9-8.3s-4.1-7.4-4.5-11.8h20.4c0.2,2.3,1.3,4.2,3.3,5.7
	c1.9,1.4,4.3,2.2,7.1,2.2c2.6,0,4.6-0.5,6-1.5c1.4-1,2.1-2.3,2.1-3.9c0-1.9-1-3.4-3-4.3c-2-0.9-5.3-1.9-9.8-3.1
	c-4.8-1.1-8.8-2.3-12.1-3.6c-3.2-1.2-6-3.2-8.3-5.9c-2.3-2.7-3.5-6.3-3.5-10.9c0-3.9,1.1-7.4,3.2-10.6c2.1-3.2,5.3-5.7,9.4-7.5
	c4.1-1.8,9.1-2.8,14.8-2.8c8.4,0,15.1,2.1,20,6.3c4.9,4.2,7.7,9.7,8.4,16.6H83.7c-0.3-2.3-1.3-4.2-3.1-5.5c-1.7-1.4-4-2.1-6.8-2.1
	c-2.4,0-4.3,0.5-5.5,1.4c-1.3,0.9-1.9,2.2-1.9,3.8c0,1.9,1,3.4,3.1,4.3c2.1,1,5.2,1.9,9.6,2.9c5,1.3,9,2.6,12.2,3.8
	c3.1,1.2,5.9,3.3,8.3,6c2.4,2.8,3.6,6.5,3.7,11.2c0,3.9-1.1,7.5-3.3,10.6c-2.2,3.1-5.4,5.5-9.5,7.3c-4.1,1.8-8.9,2.7-14.4,2.7
	C70,121.6,64.8,120.6,60.2,118.6z"/>
<path fill="#EDEDED" d="M135.2,31.4v89.3h-20.6V31.4H135.2z"/>
<path fill="#EDEDED" d="M148.8,68.6c2.6-5.2,6.2-9.2,10.7-12.1c4.5-2.8,9.5-4.2,15.1-4.2c4.7,0,8.9,1,12.5,2.9
	c3.6,1.9,6.3,4.5,8.3,7.6v-9.5h20.6v67.3h-20.6v-9.5c-2,3.1-4.8,5.7-8.4,7.6c-3.6,1.9-7.7,2.9-12.5,2.9c-5.5,0-10.5-1.4-15-4.3
	c-4.5-2.9-8.1-6.9-10.7-12.2c-2.6-5.3-3.9-11.4-3.9-18.3C144.9,79.9,146.2,73.9,148.8,68.6z M191,74.8c-2.9-3-6.3-4.5-10.4-4.5
	c-4.1,0-7.6,1.5-10.4,4.4c-2.9,2.9-4.3,7-4.3,12.1c0,5.1,1.4,9.2,4.3,12.2c2.9,3,6.3,4.5,10.4,4.5c4.1,0,7.6-1.5,10.4-4.5
	c2.9-3,4.3-7,4.3-12.2C195.3,81.8,193.9,77.8,191,74.8z"/>
<path fill="#EDEDED" d="M258.6,55.2c3.5-1.9,7.7-2.9,12.4-2.9c5.5,0,10.6,1.4,15.1,4.2c4.5,2.8,8.1,6.8,10.7,12.1
	c2.6,5.2,3.9,11.3,3.9,18.2c0,6.9-1.3,13-3.9,18.3c-2.6,5.3-6.2,9.3-10.7,12.2c-4.5,2.9-9.5,4.3-15.1,4.3c-4.7,0-8.8-1-12.4-2.9
	c-3.6-1.9-6.4-4.4-8.4-7.5v41.5h-20.6V53.3h20.6v9.5C252.3,59.7,255.1,57.2,258.6,55.2z M275.5,74.7c-2.9-2.9-6.4-4.4-10.6-4.4
	c-4.1,0-7.6,1.5-10.4,4.5c-2.9,3-4.3,7-4.3,12.2c0,5.1,1.4,9.2,4.3,12.2c2.9,3,6.3,4.5,10.4,4.5c4.1,0,7.6-1.5,10.5-4.5
	c2.9-3,4.3-7.1,4.3-12.2C279.7,81.7,278.3,77.7,275.5,74.7z"/>
<path fill="#65C5B1" d="M318.7,118.4c-2.3-2.1-3.4-4.8-3.4-7.9c0-3.2,1.1-5.9,3.4-8.1c2.3-2.2,5.2-3.3,8.9-3.3
	c3.5,0,6.5,1.1,8.7,3.3c2.3,2.2,3.4,4.9,3.4,8.1c0,3.1-1.1,5.8-3.4,7.9c-2.3,2.1-5.2,3.2-8.7,3.2C323.9,121.6,321,120.5,318.7,118.4
	z"/>
<path fill="#EDEDED" d="M358.1,68.6c2.6-5.2,6.2-9.2,10.7-12.1c4.5-2.8,9.5-4.2,15.1-4.2c4.7,0,8.9,1,12.5,2.9
	c3.6,1.9,6.3,4.5,8.3,7.6v-9.5h20.6v67.3h-20.6v-9.5c-2,3.1-4.8,5.7-8.4,7.6c-3.6,1.9-7.7,2.9-12.5,2.9c-5.5,0-10.5-1.4-15-4.3
	c-4.5-2.9-8.1-6.9-10.7-12.2c-2.6-5.3-3.9-11.4-3.9-18.3C354.2,79.9,355.5,73.9,358.1,68.6z M400.3,74.8c-2.9-3-6.3-4.5-10.4-4.5
	c-4.1,0-7.6,1.5-10.4,4.4c-2.9,2.9-4.3,7-4.3,12.1c0,5.1,1.4,9.2,4.3,12.2c2.9,3,6.3,4.5,10.4,4.5c4.1,0,7.6-1.5,10.4-4.5
	c2.9-3,4.3-7,4.3-12.2C404.6,81.8,403.2,77.8,400.3,74.8z"/>
<path fill="#EDEDED" d="M477,55.2c3.6,1.9,6.3,4.5,8.3,7.6v-9.5h20.6v67.2c0,6.2-1.2,11.8-3.7,16.8c-2.5,5-6.2,9-11.2,12
	c-5,3-11.3,4.5-18.8,4.5c-10,0-18.1-2.4-24.2-7.1c-6.2-4.7-9.7-11.1-10.6-19.1h20.4c0.6,2.6,2.2,4.6,4.6,6.1
	c2.4,1.5,5.4,2.2,8.9,2.2c4.3,0,7.7-1.2,10.2-3.7c2.5-2.5,3.8-6.4,3.8-11.8V111c-2,3.1-4.8,5.7-8.3,7.7c-3.5,2-7.7,3-12.4,3
	c-5.5,0-10.6-1.4-15.1-4.3c-4.5-2.9-8.1-6.9-10.7-12.2c-2.6-5.3-3.9-11.4-3.9-18.3c0-6.9,1.3-13,3.9-18.2c2.6-5.2,6.2-9.2,10.7-12.1
	c4.5-2.8,9.5-4.2,15.1-4.2C469.3,52.4,473.4,53.3,477,55.2z M481,74.8c-2.9-3-6.3-4.5-10.4-4.5c-4.1,0-7.6,1.5-10.4,4.4
	c-2.9,2.9-4.3,7-4.3,12.1c0,5.1,1.4,9.2,4.3,12.2c2.9,3,6.3,4.5,10.4,4.5c4.1,0,7.6-1.5,10.4-4.5c2.9-3,4.3-7,4.3-12.2
	C485.3,81.8,483.9,77.8,481,74.8z"/>
<path fill="#EDEDED" d="M582.7,91.9h-46.7c0.3,4.2,1.7,7.4,4,9.6c2.4,2.2,5.3,3.3,8.7,3.3c5.1,0,8.7-2.2,10.7-6.5h22
	c-1.1,4.4-3.2,8.4-6.1,11.9c-2.9,3.5-6.6,6.3-11,8.3c-4.4,2-9.4,3-14.8,3c-6.6,0-12.5-1.4-17.6-4.2c-5.1-2.8-9.2-6.8-12.1-12.1
	c-2.9-5.2-4.3-11.3-4.3-18.3c0-7,1.4-13.1,4.3-18.3c2.9-5.2,6.9-9.2,12-12.1c5.1-2.8,11.1-4.2,17.7-4.2c6.5,0,12.3,1.4,17.4,4.1
	c5.1,2.7,9,6.6,11.9,11.7c2.9,5.1,4.3,11,4.3,17.7C583.1,87.8,583,89.8,582.7,91.9z M562,80.5c0-3.5-1.2-6.4-3.6-8.4
	c-2.4-2.1-5.4-3.1-9-3.1c-3.5,0-6.4,1-8.7,3c-2.4,2-3.8,4.9-4.4,8.6H562z"/>
<path fill="#EDEDED" d="M652.6,60.3c4.7,5.1,7.1,12.1,7.1,21v39.3h-20.5V84.1c0-4.5-1.2-8-3.5-10.5c-2.3-2.5-5.5-3.7-9.4-3.7
	c-3.9,0-7.1,1.2-9.4,3.7c-2.3,2.5-3.5,6-3.5,10.5v36.5h-20.6V53.3h20.6v8.9c2.1-3,4.9-5.3,8.4-7.1c3.5-1.7,7.5-2.6,11.9-2.6
	C641.6,52.6,647.9,55.1,652.6,60.3z"/>
<path fill="#EDEDED" d="M673,68.6c2.9-5.2,6.8-9.2,11.9-12.1c5.1-2.8,11-4.2,17.6-4.2c8.4,0,15.5,2.2,21.2,6.6
	c5.7,4.4,9.4,10.7,11.2,18.7h-22c-1.9-5.1-5.4-7.7-10.7-7.7c-3.8,0-6.8,1.5-9,4.4c-2.3,2.9-3.4,7.1-3.4,12.6c0,5.5,1.1,9.7,3.4,12.6
	c2.3,2.9,5.3,4.4,9,4.4c5.3,0,8.9-2.6,10.7-7.7h22c-1.8,7.9-5.5,14.1-11.2,18.6c-5.7,4.5-12.7,6.8-21.1,6.8
	c-6.6,0-12.4-1.4-17.6-4.2c-5.1-2.8-9.1-6.8-11.9-12.1c-2.9-5.2-4.3-11.3-4.3-18.3C668.7,80,670.2,73.9,673,68.6z"/>
<path fill="#EDEDED" d="M813.4,53.3l-42.2,99.3H749l15.4-34.3l-27.4-65h23l15.6,42.1l15.4-42.1H813.4z"/>
</svg>
