<?xml version="1.0" encoding="utf-8"?>
<!-- Generator: Adobe Illustrator 18.0.0, SVG Export Plug-In . SVG Version: 6.00 Build 0)  -->
<!DOCTYPE svg PUBLIC "-//W3C//DTD SVG 1.1//EN" "http://www.w3.org/Graphics/SVG/1.1/DTD/svg11.dtd">
<svg version="1.1" id="Calque_1" xmlns="http://www.w3.org/2000/svg" xmlns:xlink="http://www.w3.org/1999/xlink" x="0px" y="0px"
	 viewBox="0 0 841.9 171.4" enable-background="new 0 0 841.9 171.4" xml:space="preserve">
<path d="M64.1,112.3c-4.6-2-8.2-4.8-10.9-8.3s-4.1-7.4-4.5-11.8h20.4c0.2,2.3,1.3,4.2,3.3,5.7c1.9,1.4,4.3,2.2,7.1,2.2
	c2.6,0,4.6-0.5,6-1.5c1.4-1,2.1-2.3,2.1-3.9c0-1.9-1-3.4-3-4.3c-2-0.9-5.3-2-9.8-3.1C70,86.2,66,85,62.7,83.8
	c-3.2-1.2-6-3.2-8.3-5.9c-2.3-2.7-3.5-6.3-3.5-10.9c0-3.9,1.1-7.4,3.2-10.6c2.1-3.2,5.3-5.7,9.4-7.5C67.7,47,72.6,46,78.3,46
	c8.5,0,15.1,2.1,20,6.3c4.9,4.2,7.7,9.7,8.4,16.7H87.6c-0.3-2.3-1.4-4.2-3.1-5.6c-1.7-1.4-4-2.1-6.8-2.1c-2.4,0-4.3,0.5-5.6,1.4
	c-1.3,0.9-1.9,2.2-1.9,3.8c0,1.9,1,3.4,3.1,4.3c2.1,1,5.3,1.9,9.6,2.9c5,1.3,9.1,2.6,12.2,3.8c3.1,1.2,5.9,3.3,8.3,6
	c2.4,2.8,3.6,6.5,3.7,11.2c0,3.9-1.1,7.5-3.3,10.6c-2.2,3.1-5.4,5.5-9.5,7.3c-4.1,1.8-9,2.7-14.4,2.7
	C73.9,115.4,68.7,114.4,64.1,112.3z"/>
<path d="M139.2,25v89.4h-20.7V25H139.2z"/>
<path d="M152.8,62.3c2.6-5.2,6.2-9.3,10.7-12.1c4.5-2.8,9.5-4.2,15.1-4.2c4.7,0,8.9,1,12.5,2.9c3.6,1.9,6.3,4.5,8.3,7.6V47H220v67.4
	h-20.7v-9.5c-2,3.1-4.8,5.7-8.4,7.6c-3.6,1.9-7.7,2.9-12.5,2.9c-5.5,0-10.5-1.4-15-4.3c-4.5-2.9-8.1-6.9-10.7-12.2
	c-2.6-5.3-3.9-11.4-3.9-18.3C148.9,73.7,150.2,67.6,152.8,62.3z M195,68.5c-2.9-3-6.3-4.5-10.4-4.5c-4.1,0-7.6,1.5-10.4,4.4
	c-2.9,2.9-4.3,7-4.3,12.1c0,5.2,1.4,9.2,4.3,12.3c2.9,3,6.3,4.5,10.4,4.5c4.1,0,7.6-1.5,10.4-4.5c2.9-3,4.3-7,4.3-12.2
	C199.3,75.6,197.9,71.5,195,68.5z"/>
<path d="M262.7,48.9c3.5-1.9,7.7-2.9,12.4-2.9c5.6,0,10.6,1.4,15.1,4.2c4.5,2.8,8.1,6.8,10.7,12.1c2.6,5.2,3.9,11.3,3.9,18.2
	c0,6.9-1.3,13-3.9,18.3c-2.6,5.3-6.2,9.3-10.7,12.2c-4.5,2.9-9.5,4.3-15.1,4.3c-4.7,0-8.8-1-12.4-2.9c-3.6-1.9-6.4-4.4-8.4-7.5v41.5
	h-20.7V47h20.7v9.5C256.4,53.4,259.2,50.9,262.7,48.9z M279.6,68.4c-2.9-2.9-6.4-4.4-10.6-4.4c-4.1,0-7.6,1.5-10.4,4.5
	c-2.9,3-4.3,7-4.3,12.2c0,5.2,1.4,9.2,4.3,12.2c2.9,3,6.3,4.5,10.4,4.5c4.1,0,7.6-1.5,10.5-4.5c2.9-3,4.3-7.1,4.3-12.3
	C283.9,75.4,282.4,71.4,279.6,68.4z"/>
<path fill="#65C5B1" d="M322.9,112.2c-2.3-2.1-3.4-4.8-3.4-7.9c0-3.2,1.1-5.9,3.4-8.1c2.3-2.2,5.3-3.3,8.9-3.3
	c3.5,0,6.5,1.1,8.8,3.3c2.3,2.2,3.4,4.9,3.4,8.1c0,3.1-1.1,5.8-3.4,7.9c-2.3,2.1-5.2,3.2-8.8,3.2
	C328.1,115.4,325.2,114.3,322.9,112.2z"/>
<path d="M362.3,62.3c2.6-5.2,6.2-9.3,10.7-12.1c4.5-2.8,9.5-4.2,15.1-4.2c4.7,0,8.9,1,12.5,2.9c3.6,1.9,6.3,4.5,8.3,7.6V47h20.7
	v67.4h-20.7v-9.5c-2,3.1-4.8,5.7-8.4,7.6s-7.7,2.9-12.5,2.9c-5.5,0-10.5-1.4-15-4.3c-4.5-2.9-8.1-6.9-10.7-12.2
	c-2.6-5.3-3.9-11.4-3.9-18.3C358.4,73.7,359.7,67.6,362.3,62.3z M404.6,68.5c-2.9-3-6.3-4.5-10.4-4.5c-4.1,0-7.6,1.5-10.4,4.4
	c-2.9,2.9-4.3,7-4.3,12.1c0,5.2,1.4,9.2,4.3,12.3c2.9,3,6.3,4.5,10.4,4.5c4.1,0,7.6-1.5,10.4-4.5c2.9-3,4.3-7,4.3-12.2
	C408.9,75.6,407.4,71.5,404.6,68.5z"/>
<path d="M481.4,48.9c3.6,1.9,6.3,4.5,8.3,7.6V47h20.7v67.3c0,6.2-1.2,11.8-3.7,16.8c-2.5,5-6.2,9-11.2,12c-5,3-11.3,4.5-18.8,4.5
	c-10,0-18.1-2.4-24.3-7.1c-6.2-4.7-9.7-11.1-10.6-19.1h20.4c0.6,2.6,2.2,4.6,4.6,6.1c2.4,1.5,5.4,2.2,8.9,2.2
	c4.3,0,7.7-1.2,10.2-3.7c2.5-2.5,3.8-6.4,3.8-11.8v-9.5c-2,3.1-4.8,5.7-8.3,7.7c-3.5,2-7.7,3-12.4,3c-5.6,0-10.6-1.4-15.1-4.3
	c-4.5-2.9-8.1-6.9-10.7-12.2c-2.6-5.3-3.9-11.4-3.9-18.3c0-6.9,1.3-13,3.9-18.2c2.6-5.2,6.2-9.3,10.7-12.1c4.5-2.8,9.5-4.2,15.1-4.2
	C473.6,46,477.8,47,481.4,48.9z M485.4,68.5c-2.9-3-6.3-4.5-10.4-4.5c-4.1,0-7.6,1.5-10.4,4.4c-2.9,2.9-4.3,7-4.3,12.1
	c0,5.2,1.4,9.2,4.3,12.3c2.9,3,6.3,4.5,10.4,4.5c4.1,0,7.6-1.5,10.4-4.5c2.9-3,4.3-7,4.3-12.2C489.6,75.6,488.2,71.5,485.4,68.5z"/>
<path d="M587.2,85.7h-46.7c0.3,4.2,1.7,7.4,4,9.6c2.4,2.2,5.3,3.3,8.8,3.3c5.2,0,8.7-2.2,10.7-6.5h22c-1.1,4.4-3.2,8.4-6.1,12
	c-2.9,3.5-6.6,6.3-11,8.3c-4.4,2-9.4,3-14.9,3c-6.6,0-12.5-1.4-17.6-4.2c-5.2-2.8-9.2-6.8-12.1-12.1c-2.9-5.2-4.3-11.4-4.3-18.4
	c0-7,1.4-13.1,4.3-18.4c2.9-5.2,6.9-9.3,12-12.1c5.2-2.8,11.1-4.2,17.8-4.2c6.5,0,12.3,1.4,17.4,4.1c5.1,2.7,9,6.6,11.9,11.7
	c2.9,5.1,4.3,11,4.3,17.8C587.6,81.5,587.5,83.6,587.2,85.7z M566.4,74.2c0-3.5-1.2-6.4-3.6-8.5c-2.4-2.1-5.4-3.1-9.1-3.1
	c-3.5,0-6.4,1-8.8,3c-2.4,2-3.8,4.9-4.4,8.6H566.4z"/>
<path d="M657.2,54c4.7,5.1,7.1,12.1,7.1,21.1v39.4h-20.5V77.8c0-4.5-1.2-8-3.5-10.5c-2.3-2.5-5.5-3.7-9.4-3.7
	c-3.9,0-7.1,1.2-9.4,3.7c-2.3,2.5-3.5,6-3.5,10.5v36.6h-20.6V47h20.6v8.9c2.1-3,4.9-5.3,8.5-7.1c3.5-1.7,7.5-2.6,12-2.6
	C646.2,46.3,652.5,48.8,657.2,54z"/>
<path d="M677.6,62.3c2.9-5.2,6.8-9.3,12-12.1c5.1-2.8,11-4.2,17.6-4.2c8.5,0,15.5,2.2,21.2,6.6c5.7,4.4,9.4,10.7,11.2,18.7h-22
	c-1.9-5.2-5.4-7.7-10.8-7.7c-3.8,0-6.8,1.5-9.1,4.4c-2.3,2.9-3.4,7.1-3.4,12.6c0,5.5,1.1,9.7,3.4,12.6c2.3,2.9,5.3,4.4,9.1,4.4
	c5.3,0,8.9-2.6,10.8-7.7h22c-1.8,7.9-5.5,14.1-11.2,18.6c-5.7,4.5-12.8,6.8-21.1,6.8c-6.6,0-12.5-1.4-17.6-4.2
	c-5.1-2.8-9.1-6.8-12-12.1c-2.9-5.2-4.3-11.4-4.3-18.4C673.3,73.7,674.7,67.6,677.6,62.3z"/>
<path d="M818.1,47l-42.3,99.4h-22.2l15.5-34.3L741.7,47h23.1l15.6,42.1L795.8,47H818.1z"/>
</svg>
