<?xml version="1.0" encoding="utf-8"?>
<!-- Generator: Adobe Illustrator 18.0.0, SVG Export Plug-In . SVG Version: 6.00 Build 0)  -->
<!DOCTYPE svg PUBLIC "-//W3C//DTD SVG 1.1//EN" "http://www.w3.org/Graphics/SVG/1.1/DTD/svg11.dtd">
<svg version="1.1" id="Calque_1" xmlns="http://www.w3.org/2000/svg" xmlns:xlink="http://www.w3.org/1999/xlink" x="0px" y="0px"
	 viewBox="0 0 608.6 297.9" enable-background="new 0 0 608.6 297.9" xml:space="preserve">
<path d="M51.7,168.3c-7.4-3.2-13.3-7.7-17.5-13.4c-4.3-5.7-6.7-12-7.2-19h33c0.4,3.8,2.1,6.8,5.3,9.2c3.1,2.3,7,3.5,11.5,3.5
	c4.2,0,7.4-0.8,9.6-2.4c2.3-1.6,3.4-3.7,3.4-6.3c0-3.1-1.6-5.4-4.9-6.9c-3.3-1.5-8.5-3.1-15.8-5c-7.8-1.8-14.3-3.7-19.5-5.8
	c-5.2-2-9.7-5.2-13.5-9.6c-3.8-4.4-5.7-10.2-5.7-17.6c0-6.2,1.7-11.9,5.2-17.1c3.4-5.1,8.5-9.2,15.2-12.2c6.7-3,14.7-4.5,23.9-4.5
	c13.6,0,24.4,3.4,32.3,10.1c7.9,6.8,12.4,15.7,13.6,26.9H89.7c-0.5-3.8-2.2-6.8-5-9c-2.8-2.2-6.5-3.3-11-3.3c-3.9,0-6.9,0.7-9,2.2
	c-2.1,1.5-3.1,3.5-3.1,6.1c0,3.1,1.7,5.5,5,7c3.3,1.6,8.5,3.1,15.5,4.7c8.1,2.1,14.6,4.1,19.7,6.1c5.1,2,9.5,5.3,13.4,9.7
	c3.8,4.5,5.8,10.5,5.9,18c0,6.4-1.8,12.1-5.4,17.1c-3.6,5-8.7,8.9-15.4,11.8c-6.7,2.9-14.5,4.3-23.3,4.3
	C67.5,173.2,59.1,171.6,51.7,168.3z"/>
<path d="M194.4,27.4v144.3H161V27.4H194.4z"/>
<path d="M237.7,87.6c4.2-8.4,10-14.9,17.3-19.5c7.3-4.5,15.4-6.8,24.4-6.8c7.7,0,14.4,1.6,20.2,4.7c5.8,3.1,10.2,7.2,13.4,12.3V62.8
	h33.3v108.8h-33.3v-15.4c-3.3,5.1-7.8,9.2-13.6,12.3c-5.8,3.1-12.5,4.7-20.2,4.7c-8.8,0-16.9-2.3-24.2-6.9
	c-7.3-4.6-13-11.2-17.3-19.7c-4.2-8.5-6.3-18.4-6.3-29.5C231.4,105.9,233.5,96.1,237.7,87.6z M306,97.5c-4.6-4.8-10.2-7.2-16.9-7.2
	c-6.6,0-12.3,2.4-16.9,7.1c-4.6,4.7-6.9,11.3-6.9,19.6c0,8.3,2.3,14.9,6.9,19.8c4.6,4.9,10.2,7.3,16.9,7.3c6.6,0,12.2-2.4,16.9-7.2
	c4.6-4.8,6.9-11.4,6.9-19.7C312.9,108.9,310.6,102.4,306,97.5z"/>
<path d="M444.4,66.7c6.7-3.6,14.5-5.5,23.4-5.5c10.4,0,19.9,2.7,28.4,8c8.5,5.3,15.2,12.9,20.1,22.7c4.9,9.8,7.4,21.3,7.4,34.3
	c0,13-2.5,24.5-7.4,34.4c-4.9,9.9-11.6,17.6-20.1,22.9c-8.5,5.4-17.9,8.1-28.4,8.1c-8.8,0-16.5-1.8-23.3-5.5
	c-6.7-3.6-12-8.3-15.8-14.1v78.1h-38.8V63.1h38.8V81C432.5,75.1,437.8,70.4,444.4,66.7z M476.1,103.4c-5.4-5.5-12-8.3-19.9-8.3
	c-7.7,0-14.3,2.8-19.6,8.4c-5.4,5.6-8.1,13.3-8.1,22.9c0,9.7,2.7,17.3,8.1,22.9c5.4,5.6,11.9,8.4,19.6,8.4c7.7,0,14.3-2.8,19.8-8.5
	c5.5-5.7,8.2-13.4,8.2-23.1C484.2,116.6,481.5,108.9,476.1,103.4z"/>
<path fill="#65C5B1" d="M551.2,168c-3.7-3.4-5.6-7.7-5.6-12.8c0-5.2,1.9-9.6,5.6-13.1c3.7-3.5,8.5-5.3,14.3-5.3
	c5.7,0,10.4,1.8,14.1,5.3c3.7,3.5,5.6,7.9,5.6,13.1c0,5.1-1.9,9.3-5.6,12.8c-3.7,3.4-8.4,5.2-14.1,5.2
	C559.7,173.2,554.9,171.5,551.2,168z"/>
<g>
	<path d="M65.1,242.8H44.4l-4,10.8h-4.8l16.6-44.8h5.1l16.5,44.8H69L65.1,242.8z M63.7,239.1l-9-24.6l-9,24.6H63.7z"/>
	<path d="M129.9,221.5c-1.3-3-3.3-5.3-5.9-7.1c-2.7-1.7-5.8-2.6-9.4-2.6c-3.4,0-6.4,0.8-9.1,2.3c-2.7,1.6-4.8,3.8-6.4,6.7
		c-1.6,2.9-2.3,6.2-2.3,10c0,3.8,0.8,7.2,2.3,10.1c1.6,2.9,3.7,5.1,6.4,6.7c2.7,1.6,5.7,2.3,9.1,2.3c3.2,0,6-0.7,8.5-2
		c2.5-1.4,4.6-3.3,6.1-5.8c1.5-2.5,2.4-5.5,2.6-8.9h-19.1v-3.7h23.9v3.3c-0.2,4-1.3,7.6-3.3,10.8c-2,3.2-4.6,5.8-7.8,7.6
		c-3.3,1.9-6.9,2.8-11,2.8c-4.2,0-8-1-11.4-3s-6.1-4.7-8.1-8.3c-2-3.5-3-7.5-3-12c0-4.5,1-8.5,3-12c2-3.5,4.7-6.3,8.1-8.3
		c3.4-2,7.2-3,11.4-3c4.8,0,9.1,1.2,12.7,3.6c3.6,2.4,6.3,5.8,7.9,10.1H129.9z"/>
	<path d="M162.5,211.9v17h17.2v3.8h-17.2v17.2h19.2v3.8h-23.7v-45.5h23.7v3.8H162.5z"/>
	<path d="M237.9,253.6h-4.5l-25.2-38.2v38.2h-4.6v-45.4h4.6l25.2,38.1v-38.1h4.5V253.6z"/>
	<path d="M262,218.9c2-3.5,4.6-6.3,8-8.3c3.4-2,7.2-3,11.3-3c5.1,0,9.4,1.2,13,3.6c3.6,2.4,6.2,5.8,7.9,10.2H297
		c-1.3-3.1-3.3-5.5-5.9-7.2c-2.7-1.7-5.9-2.6-9.7-2.6c-3.3,0-6.3,0.8-9,2.3c-2.7,1.6-4.8,3.8-6.3,6.7c-1.5,2.9-2.3,6.3-2.3,10.2
		c0,3.9,0.8,7.2,2.3,10.1c1.5,2.9,3.6,5.1,6.3,6.7c2.7,1.6,5.7,2.3,9,2.3c3.8,0,7-0.9,9.7-2.6c2.7-1.7,4.6-4.1,5.9-7.1h5.3
		c-1.6,4.3-4.3,7.7-7.9,10.1c-3.6,2.4-8,3.6-13,3.6c-4.2,0-7.9-1-11.3-3c-3.4-2-6-4.7-8-8.2c-1.9-3.5-2.9-7.5-2.9-12
		C259.1,226.4,260.1,222.4,262,218.9z"/>
	<path d="M354.3,208.2L339.8,236v17.7h-4.5V236l-14.7-27.8h5.1l11.8,23.6l11.8-23.6H354.3z"/>
</g>
</svg>
